<svg xmlns="http://www.w3.org/2000/svg" width="1024" height="64" viewBox="0 0 1024 64">
  <defs>
    <g id="guard">
      <circle cx="32" cy="17" r="8" fill="#d9b383"/>
      <path d="M21 12h22l3 10H18z" fill="#4b5568"/>
      <path d="M18 58c2-20 8-31 14-31s12 11 14 31z" fill="#36445f"/>
      <path d="M22 31h20v13H22z" fill="#9aa5b5"/>
      <path d="M50 14v39" stroke="#d6dde8" stroke-width="4" stroke-linecap="round"/>
      <path d="M45 21h10" stroke="#f7c85f" stroke-width="4" stroke-linecap="round"/>
      <circle cx="28" cy="18" r="2" fill="#111827"/>
      <circle cx="36" cy="18" r="2" fill="#111827"/>
      <path d="M28 25h9" stroke="#111827" stroke-width="2" stroke-linecap="round"/>
    </g>
  </defs>
  <rect width="1024" height="64" fill="none"/>
  <g transform="translate(0 0)"><use href="#guard" transform="rotate(0 32 32)"/></g>
  <g transform="translate(64 0)"><use href="#guard" transform="rotate(22.5 32 32)"/></g>
  <g transform="translate(128 0)"><use href="#guard" transform="rotate(45 32 32)"/></g>
  <g transform="translate(192 0)"><use href="#guard" transform="rotate(67.5 32 32)"/></g>
  <g transform="translate(256 0)"><use href="#guard" transform="rotate(90 32 32)"/></g>
  <g transform="translate(320 0)"><use href="#guard" transform="rotate(112.5 32 32)"/></g>
  <g transform="translate(384 0)"><use href="#guard" transform="rotate(135 32 32)"/></g>
  <g transform="translate(448 0)"><use href="#guard" transform="rotate(157.5 32 32)"/></g>
  <g transform="translate(512 0)"><use href="#guard" transform="rotate(180 32 32)"/></g>
  <g transform="translate(576 0)"><use href="#guard" transform="rotate(202.5 32 32)"/></g>
  <g transform="translate(640 0)"><use href="#guard" transform="rotate(225 32 32)"/></g>
  <g transform="translate(704 0)"><use href="#guard" transform="rotate(247.5 32 32)"/></g>
  <g transform="translate(768 0)"><use href="#guard" transform="rotate(270 32 32)"/></g>
  <g transform="translate(832 0)"><use href="#guard" transform="rotate(292.5 32 32)"/></g>
  <g transform="translate(896 0)"><use href="#guard" transform="rotate(315 32 32)"/></g>
  <g transform="translate(960 0)"><use href="#guard" transform="rotate(337.5 32 32)"/></g>
</svg>
